<svg width="32" height="32" viewBox="0 0 32 32" fill="none" xmlns="http://www.w3.org/2000/svg">
<mask id="mask0" mask-type="alpha" maskUnits="userSpaceOnUse" x="2" y="2" width="14" height="19">
<path fill-rule="evenodd" clip-rule="evenodd" d="M2.66675 2.66748H15.0605V20.1395H2.66675V2.66748Z" fill="white"/>
</mask>
<g mask="url(#mask0)">
<path fill-rule="evenodd" clip-rule="evenodd" d="M8.96722 20.1395C8.69122 20.1395 8.41522 20.0248 8.21789 19.8008C1.09522 11.7315 2.11655 7.55281 4.22855 5.46748C4.24989 5.44081 4.32322 5.36881 4.34589 5.34481C6.21789 3.44481 7.49789 2.66748 8.74722 2.66748H8.78589C10.2672 2.68615 11.3139 3.80481 12.6392 5.22215C12.9646 5.57015 13.3192 5.94748 13.7112 6.34615C15.6179 8.29148 15.0766 9.87548 14.6406 11.1475C14.3259 12.0688 14.0512 12.8661 14.5499 14.0008C14.7726 14.5075 14.5432 15.0981 14.0379 15.3195C13.5286 15.5408 12.9406 15.3115 12.7192 14.8061C11.9072 12.9541 12.3926 11.5355 12.7486 10.4995C13.1339 9.37548 13.3272 8.81148 12.2846 7.74881C11.8806 7.33815 11.5152 6.94748 11.1779 6.58881C10.1392 5.47681 9.38722 4.67415 8.76055 4.66748H8.74989C8.12722 4.66748 7.15255 5.34748 5.77122 6.74881C5.77255 6.74615 5.77522 6.74481 5.77522 6.74481C5.77789 6.74481 5.71522 6.81015 5.63389 6.89015C2.77789 9.71148 6.96589 15.3608 9.71655 18.4781C10.0819 18.8915 10.0432 19.5235 9.62855 19.8901C9.43922 20.0568 9.20322 20.1395 8.96722 20.1395Z" fill="white"/>
</g>
<path fill-rule="evenodd" clip-rule="evenodd" d="M23.4033 30.1329C20.3486 30.1329 16.4313 27.8142 11.7539 23.2369C11.3593 22.8502 11.3513 22.2169 11.7379 21.8235C12.1259 21.4275 12.7593 21.4222 13.1526 21.8075C18.5646 27.1049 21.7273 28.2089 23.49 28.1315C24.7766 28.1049 25.3846 27.4529 25.6766 27.1409C25.758 27.0542 25.8219 26.9902 25.8699 26.9475C27.1939 25.5929 27.862 24.5955 27.854 23.9502C27.8446 23.2929 27.0513 22.5222 25.9526 21.4542C25.6046 21.1169 25.2286 20.7515 24.83 20.3462C23.8073 19.3035 23.3006 19.4849 22.1873 19.8875C20.8166 20.3809 18.9366 21.0609 16.2073 18.8155C15.7793 18.4649 15.7166 17.8342 16.0686 17.4089C16.418 16.9809 17.0526 16.9195 17.4753 17.2715C19.33 18.7889 20.2886 18.4422 21.51 18.0049C22.702 17.5755 24.3353 16.9915 26.2579 18.9435C26.6446 19.3382 27.01 19.6929 27.346 20.0209C28.7366 21.3715 29.834 22.4382 29.8526 23.9262C29.87 25.1955 29.1113 26.4929 27.242 28.4022L26.4073 27.8249L27.1379 28.5062C26.7339 28.9382 25.662 30.0849 23.5353 30.1315C23.49 30.1329 23.446 30.1329 23.4033 30.1329Z" fill="white"/>
<path fill-rule="evenodd" clip-rule="evenodd" d="M6.18596 29.8662C5.94063 29.8662 5.69529 29.7769 5.50196 29.5956C5.09929 29.2182 5.07929 28.5849 5.45663 28.1822L25.4566 6.8489C25.8326 6.4449 26.4673 6.4249 26.87 6.80357C27.2726 7.1809 27.2926 7.81424 26.9153 8.2169L6.91529 29.5502C6.71796 29.7609 6.45263 29.8662 6.18596 29.8662Z" fill="white"/>
</svg>
